<svg width="25" height="18" viewBox="0 0 25 18" version="1.1" xmlns="http://www.w3.org/2000/svg" xmlns:xlink="http://www.w3.org/1999/xlink">
<title>fr-icon</title>
<desc>Created using Figma</desc>
<g id="Canvas" transform="translate(-3658 2515)">
<g id="fr-icon">
<g id="Rectangle 6">
<use xlink:href="#path0_fill" transform="translate(3658 -2515)" fill="#FFFFFF"/>
</g>
<g id="Rectangle 6">
<use xlink:href="#path1_fill" transform="translate(3658 -2515)" fill="#6642F2"/>
</g>
<g id="Rectangle 6">
<use xlink:href="#path1_fill" transform="matrix(-1 0 0 1 3683 -2515)" fill="#E51D1D"/>
</g>
</g>
</g>
<defs>
<path id="path0_fill" d="M 0 2C 0 0.895431 0.895431 0 2 0L 22 0C 23.1046 0 24 0.895431 24 2L 24 16C 24 17.1046 23.1046 18 22 18L 2 18C 0.895431 18 0 17.1046 0 16L 0 2Z"/>
<path id="path1_fill" d="M 0 2C 0 0.895431 0.895431 0 2 0L 8 0L 8 18L 2 18C 0.895431 18 0 17.1046 0 16L 0 2Z"/>
</defs>
</svg>
