<svg width="150" height="150" viewBox="0 0 150 150" version="1.1" xmlns="http://www.w3.org/2000/svg" xmlns:xlink="http://www.w3.org/1999/xlink">
<title>immigration-ill</title>
<desc>Created using Figma</desc>
<g id="Canvas" transform="translate(-2461 1725)">
<g id="immigration-ill">
<g id="circel (Stroke)">
<use xlink:href="#path0_fill" transform="translate(2461 -1725)" fill="#305689"/>
</g>
<g id="Group">
<g id="Rectangle 11">
<use xlink:href="#path1_fill" transform="matrix(0.965926 -0.258819 0.258819 0.965926 2467.21 -1697.74)" fill="#B1D2FF"/>
</g>
<g id="Rectangle 11 (Stroke)">
<use xlink:href="#path2_fill" transform="matrix(0.965926 -0.258819 0.258819 0.965926 2466 -1698.43)" fill="#305689"/>
</g>
<g id="Rectangle 11">
<use xlink:href="#path3_fill" transform="translate(2481.77 -1712.91)" fill="#FFFFFF"/>
</g>
<g id="Rectangle 11 (Stroke)">
<use xlink:href="#path4_fill" transform="translate(2480.79 -1713.9)" fill="#305689"/>
</g>
<g id="Rectangle 11 (Stroke)">
<use xlink:href="#path5_fill" transform="translate(2543.71 -1695.02)" fill="#305689"/>
</g>
<g id="Rectangle 11 (Stroke)">
<use xlink:href="#path5_fill" transform="translate(2543.71 -1688.73)" fill="#305689"/>
</g>
<g id="Rectangle 11 (Stroke)">
<use xlink:href="#path5_fill" transform="translate(2543.71 -1682.44)" fill="#305689"/>
</g>
<g id="Rectangle 11 (Stroke)">
<use xlink:href="#path6_fill" transform="translate(2543.71 -1676.15)" fill="#305689"/>
</g>
<g id="Rectangle 11 (Stroke)">
<use xlink:href="#path6_fill" transform="translate(2543.71 -1669.86)" fill="#305689"/>
</g>
<g id="Rectangle 11 (Stroke)">
<use xlink:href="#path7_fill" transform="translate(2493.37 -1650.99)" fill="#305689"/>
</g>
<g id="Rectangle 11 (Stroke)">
<use xlink:href="#path7_fill" transform="translate(2493.37 -1644.69)" fill="#305689"/>
</g>
<g id="Rectangle 11 (Stroke)">
<use xlink:href="#path7_fill" transform="translate(2493.37 -1638.4)" fill="#305689"/>
</g>
<g id="Rectangle 11 (Stroke)">
<use xlink:href="#path8_fill" transform="translate(2493.37 -1632.11)" fill="#305689"/>
</g>
<g id="Rectangle 11 (Stroke)">
<use xlink:href="#path8_fill" transform="translate(2493.37 -1625.82)" fill="#305689"/>
</g>
<g id="Rectangle 11 (Stroke)">
<use xlink:href="#path8_fill" transform="translate(2493.37 -1600.66)" fill="#305689"/>
</g>
<g id="Rectangle 11 (Stroke)">
<use xlink:href="#path5_fill" transform="translate(2493.37 -1606.95)" fill="#305689"/>
</g>
<g id="Rectangle 11">
<use xlink:href="#path9_fill" transform="translate(2494.36 -1700.33)" fill="#B1D2FF"/>
</g>
<g id="Rectangle 11 (Stroke)">
<use xlink:href="#path10_fill" transform="translate(2493.37 -1701.31)" fill="#305689"/>
</g>
<g id="Ellipse">
<use xlink:href="#path11_fill" transform="translate(2517.01 -1686.49)" fill="#FFFFFF"/>
</g>
<g id="Ellipse">
<use xlink:href="#path11_fill" transform="translate(2505.68 -1686.49)" fill="#FFFFFF"/>
</g>
<g id="Union">
<use xlink:href="#path12_fill" transform="translate(2503.16 -1692.78)" fill="#FFFFFF"/>
</g>
<g id="Rectangle 11 (Stroke)">
<use xlink:href="#path10_fill" transform="translate(2493.37 -1701.31)" fill="#305689"/>
</g>
<g id="Rectangle 11">
<use xlink:href="#path13_fill" transform="matrix(0.969362 -0.245636 0.245721 0.969341 2549.73 -1653.33)" fill="#B1D2FF"/>
</g>
<g id="Rectangle 11 (Stroke)">
<use xlink:href="#path14_fill" transform="matrix(0.969362 -0.245636 0.245721 0.969341 2548.53 -1654.04)" fill="#305689"/>
</g>
<g id="Rectangle 11 (Stroke)">
<use xlink:href="#path15_fill" transform="matrix(0.969362 -0.245636 0.245721 0.969341 2560.78 -1641.57)" fill="#FFFFFF"/>
</g>
<g id="Rectangle 11 (Stroke)">
<use xlink:href="#path16_fill" transform="matrix(0.969362 -0.245636 0.245721 0.969341 2566.88 -1643.12)" fill="#FFFFFF"/>
</g>
<g id="Vector 4 (Stroke)">
<use xlink:href="#path17_fill" transform="matrix(0.969362 -0.245636 0.245721 0.969341 2572.98 -1644.66)" fill="#FFFFFF"/>
</g>
<g id="Vector 4 (Stroke)">
<use xlink:href="#path18_fill" transform="matrix(-0.245721 -0.969341 0.969362 -0.245636 2564.35 -1627.47)" fill="#FFFFFF"/>
</g>
</g>
</g>
</g>
<defs>
<path id="path0_fill" fill-rule="evenodd" d="M 0 75C 0 33.5786 33.5786 0 75 0C 116.421 0 150 33.5786 150 75C 150 116.421 116.421 150 75 150C 33.5786 150 0 116.421 0 75ZM 75 1.97368C 34.6687 1.97368 1.97368 34.6687 1.97368 75C 1.97368 115.331 34.6687 148.026 75 148.026C 115.331 148.026 148.026 115.331 148.026 75C 148.026 34.6687 115.331 1.97368 75 1.97368Z"/>
<path id="path1_fill" d="M 0 1.96777C 0 0.881002 0.880957 0 1.96767 0L 98.7068 0C 99.7935 0 100.674 0.881002 100.674 1.96777L 100.674 123.851C 100.674 124.938 99.7935 125.819 98.7068 125.819L 1.96767 125.819C 0.880957 125.819 0 124.938 0 123.851L 0 1.96777Z"/>
<path id="path2_fill" fill-rule="evenodd" d="M 0 2.95166C 0 1.3215 1.32144 0 2.95151 0L 99.6906 0C 101.321 0 102.642 1.3215 102.642 2.95166L 102.642 124.835C 102.642 126.465 101.321 127.787 99.6906 127.787L 2.95151 127.787C 1.32144 127.787 0 126.465 0 124.835L 0 2.95166ZM 2.95151 1.96777C 2.40815 1.96777 1.96767 2.40827 1.96767 2.95166L 1.96767 124.835C 1.96767 125.378 2.40815 125.819 2.95151 125.819L 99.6906 125.819C 100.234 125.819 100.674 125.378 100.674 124.835L 100.674 2.95166C 100.674 2.40827 100.234 1.96777 99.6906 1.96777L 2.95151 1.96777Z"/>
<path id="path3_fill" d="M 0 1.96778C 0 0.881006 0.880953 0 1.96766 0L 98.7064 0C 99.7931 0 100.674 0.881006 100.674 1.96778L 100.674 123.851C 100.674 124.938 99.7931 125.819 98.7064 125.819L 1.96766 125.819C 0.880953 125.819 0 124.938 0 123.851L 0 1.96778Z"/>
<path id="path4_fill" fill-rule="evenodd" d="M 0 2.95167C 0 1.32151 1.32143 0 2.9515 0L 99.6902 0C 101.32 0 102.642 1.32151 102.642 2.95167L 102.642 124.835C 102.642 126.466 101.32 127.787 99.6902 127.787L 2.9515 127.787C 1.32143 127.787 0 126.466 0 124.835L 0 2.95167ZM 2.9515 1.96778C 2.40814 1.96778 1.96766 2.40828 1.96766 2.95167L 1.96766 124.835C 1.96766 125.379 2.40814 125.819 2.9515 125.819L 99.6902 125.819C 100.234 125.819 100.674 125.379 100.674 124.835L 100.674 2.95167C 100.674 2.40828 100.234 1.96778 99.6902 1.96778L 2.9515 1.96778Z"/>
<path id="path5_fill" fill-rule="evenodd" d="M 0 0.983891C 0 0.440503 0.440477 0 0.983832 0L 26.1524 0C 26.6957 0 27.1362 0.440503 27.1362 0.983891C 27.1362 1.52728 26.6957 1.96778 26.1524 1.96778L 0.983832 1.96778C 0.440477 1.96778 0 1.52728 0 0.983891Z"/>
<path id="path6_fill" fill-rule="evenodd" d="M 0 0.983891C 0 0.440503 0.440477 0 0.983832 0L 16.0849 0C 16.6283 0 17.0688 0.440503 17.0688 0.983891C 17.0688 1.52728 16.6283 1.96778 16.0849 1.96778L 0.983832 1.96778C 0.440477 1.96778 0 1.52728 0 0.983891Z"/>
<path id="path7_fill" fill-rule="evenodd" d="M 0 0.983891C 0 0.440503 0.440477 0 0.983832 0L 76.4894 0C 77.0327 0 77.4732 0.440503 77.4732 0.983891C 77.4732 1.52728 77.0327 1.96778 76.4894 1.96778L 0.983832 1.96778C 0.440477 1.96778 0 1.52728 0 0.983891Z"/>
<path id="path8_fill" fill-rule="evenodd" d="M 0 0.983891C 0 0.440503 0.440477 0 0.983832 0L 46.2872 0C 46.8305 0 47.271 0.440503 47.271 0.983891C 47.271 1.52728 46.8305 1.96778 46.2872 1.96778L 0.983832 1.96778C 0.440477 1.96778 0 1.52728 0 0.983891Z"/>
<path id="path9_fill" d="M 0 18.8729C 0 8.44968 8.44918 0 18.8718 0L 18.881 0C 29.3036 0 37.7528 8.44968 37.7528 18.8729C 37.7528 29.2961 29.3036 37.7458 18.881 37.7458L 18.8718 37.7458C 8.44918 37.7458 0 29.2961 0 18.8729Z"/>
<path id="path10_fill" fill-rule="evenodd" d="M 0 19.8568C 0 8.89018 8.88966 0 19.8556 0L 19.8648 0C 30.8308 0 39.7204 8.89018 39.7204 19.8568C 39.7204 30.8234 30.8308 39.7136 19.8648 39.7136L 19.8556 39.7136C 8.88966 39.7136 0 30.8234 0 19.8568ZM 19.8556 1.96778C 9.97637 1.96778 1.96766 9.97696 1.96766 19.8568C 1.96766 29.7366 9.97637 37.7458 19.8556 37.7458L 19.8648 37.7458C 29.7441 37.7458 37.7528 29.7366 37.7528 19.8568C 37.7528 9.97696 29.7441 1.96778 19.8648 1.96778L 19.8556 1.96778Z"/>
<path id="path11_fill" d="M 3.7755 1.88729C 3.7755 2.92961 2.93033 3.77458 1.88775 3.77458C 0.845175 3.77458 0 2.92961 0 1.88729C 0 0.844968 0.845175 0 1.88775 0C 2.93033 0 3.7755 0.844968 3.7755 1.88729Z"/>
<path id="path12_fill" d="M 11.3258 14.9473C 14.1979 14.2478 16.3595 11.2014 16.3595 7.54915C 16.3595 3.37987 13.5425 0 10.0674 0C 6.59235 0 3.77528 3.37987 3.77528 7.54915C 3.77528 11.2014 5.93695 14.2478 8.80898 14.9473C 8.80898 15.7968 8.17019 16.4983 7.35208 16.7269C 3.11101 17.9117 0 21.8036 0 26.422C 0 31.9811 4.50734 36.4876 10.0674 36.4876C 15.6275 36.4876 20.1348 31.9811 20.1348 26.422C 20.1348 21.8036 17.0238 17.9117 12.7827 16.7269C 11.9646 16.4983 11.3258 15.7968 11.3258 14.9473Z"/>
<path id="path13_fill" d="M 0 0L 42.786 0L 42.786 55.3611L 0 55.3611L 0 0Z"/>
<path id="path14_fill" fill-rule="evenodd" d="M 0 0.983887C 0 0.440501 0.440478 0 0.983836 0L 43.7698 0C 44.3132 0 44.7537 0.440501 44.7537 0.983887L 44.7537 56.345C 44.7537 56.8884 44.3132 57.3289 43.7698 57.3289L 0.983836 57.3289C 0.440478 57.3289 0 56.8884 0 56.345L 0 0.983887ZM 1.96767 1.96777L 1.96767 55.3611L 42.786 55.3611L 42.786 1.96777L 1.96767 1.96777Z"/>
<path id="path15_fill" fill-rule="evenodd" d="M 0 13.566C 0 6.07368 6.07337 0 13.5652 0L 13.5707 0C 21.0625 0 27.1359 6.07368 27.1359 13.566C 27.1359 21.0582 21.0625 27.1319 13.5707 27.1319L 13.5652 27.1319C 6.07337 27.1319 0 21.0582 0 13.566ZM 13.5652 1.96777C 7.16008 1.96777 1.96767 7.16046 1.96767 13.566C 1.96767 19.9714 7.16008 25.1641 13.5652 25.1641L 13.5707 25.1641C 19.9758 25.1641 25.1682 19.9714 25.1682 13.566C 25.1682 7.16046 19.9758 1.96777 13.5707 1.96777L 13.5652 1.96777Z"/>
<path id="path16_fill" fill-rule="evenodd" d="M 7.93256 0.250837L 7.2763 0.983891L 6.62004 0.250837C 6.99363 -0.0836124 7.55897 -0.0836124 7.93256 0.250837ZM 7.2763 26.1481C 6.62004 26.8812 6.6198 26.8809 6.61953 26.8807L 6.61888 26.8801L 6.61713 26.8786L 6.61194 26.8739L 6.59484 26.8583C 6.58171 26.8463 6.56033 26.8267 6.5348 26.8029C 6.48616 26.7575 6.4107 26.6862 6.31939 26.5973C 6.14174 26.4242 5.87826 26.159 5.57139 25.828C 4.96804 25.1766 4.13675 24.2012 3.32061 23.0222C 1.71016 20.6869 0.0263298 17.2665 0 13.566C 0.0263298 9.86545 1.71016 6.4451 3.32061 4.10984C 4.13675 2.93082 4.96804 1.95544 5.57139 1.30396C 5.87826 0.972982 6.14174 0.707836 6.31939 0.534738C 6.4107 0.44583 6.48616 0.374458 6.5348 0.329111C 6.56033 0.305325 6.58171 0.285665 6.59484 0.273676L 6.61194 0.258134L 6.61713 0.253449L 6.61888 0.251883L 6.61953 0.251295C 6.6198 0.251055 6.62004 0.250837 7.2763 0.983891C 7.93256 0.250837 7.9328 0.251055 7.93307 0.251295L 7.93372 0.251883L 7.93547 0.253449L 7.94066 0.258134L 7.95776 0.273676C 7.97089 0.285665 7.99227 0.305325 8.0178 0.329111C 8.06644 0.374458 8.1419 0.44583 8.23321 0.534738C 8.41087 0.707836 8.67434 0.972982 8.98121 1.30396C 9.58456 1.95544 10.4159 2.93082 11.232 4.10984C 12.8424 6.4451 14.5263 9.86545 14.5526 13.566C 14.5263 17.2665 12.8424 20.6869 11.232 23.0222C 10.4159 24.2012 9.58456 25.1766 8.98121 25.828C 8.67434 26.159 8.41087 26.4242 8.23321 26.5973C 8.1419 26.6862 8.06644 26.7575 8.0178 26.8029C 7.99227 26.8267 7.97089 26.8463 7.95776 26.8583L 7.94066 26.8739L 7.93547 26.8786L 7.93372 26.8801L 7.93307 26.8807C 7.9328 26.8809 7.93256 26.8812 7.2763 26.1481ZM 7.2763 26.1481L 6.62004 26.8812C 6.99363 27.2156 7.55897 27.2156 7.93256 26.8812L 7.2763 26.1481ZM 7.2763 24.7681C 7.35734 24.6837 7.44458 24.5913 7.53777 24.4906C 8.11425 23.8688 8.85605 23.0015 9.61302 21.9036C 11.1488 19.6851 12.6111 16.8144 12.5848 13.566C 12.6111 10.3176 11.1488 7.44694 9.61302 5.22837C 8.85605 4.13048 8.11425 3.26325 7.53777 2.64135C 7.44458 2.5407 7.35734 2.44834 7.2763 2.36393C 7.19526 2.44834 7.10802 2.5407 7.01483 2.64135C 6.43835 3.26325 5.69655 4.13048 4.93958 5.22837C 3.40382 7.44694 1.94145 10.3176 1.96778 13.566C 1.94145 16.8144 3.40382 19.6851 4.93958 21.9036C 5.69655 23.0015 6.43835 23.8688 7.01483 24.4906C 7.10802 24.5913 7.19526 24.6837 7.2763 24.7681Z"/>
<path id="path17_fill" fill-rule="evenodd" d="M 0.983891 0C 1.52728 0 1.96778 0.440503 1.96778 0.983891L 1.96778 26.1481C 1.96778 26.6915 1.52728 27.132 0.983891 27.132C 0.440503 27.132 0 26.6915 0 26.1481L 0 0.983891C 0 0.440503 0.440503 0 0.983891 0Z"/>
<path id="path18_fill" fill-rule="evenodd" d="M 0.983887 0C 1.52727 0 1.96777 0.440478 1.96777 0.983836L 1.96777 26.1521C 1.96777 26.6954 1.52727 27.1359 0.983887 27.1359C 0.440501 27.1359 0 26.6954 0 26.1521L 0 0.983836C 0 0.440478 0.440501 0 0.983887 0Z"/>
</defs>
</svg>
