<svg width="190" height="48" viewBox="0 0 190 48" version="1.1" xmlns="http://www.w3.org/2000/svg" xmlns:xlink="http://www.w3.org/1999/xlink">
<title>immin-logo</title>
<desc>Created using Figma</desc>
<g id="Canvas" transform="translate(-3488 -518)">
<g id="immin-logo">
<use xlink:href="#path0_fill" transform="translate(3488 518)" fill="#FFFFFF"/>
<use xlink:href="#path1_fill" transform="translate(3488 518)" fill="#FFFFFF"/>
<use xlink:href="#path2_fill" transform="translate(3488 518)" fill="#FFFFFF"/>
<use xlink:href="#path3_fill" transform="translate(3488 518)" fill="#FFFFFF"/>
<use xlink:href="#path4_fill" transform="translate(3488 518)" fill="#FFFFFF"/>
</g>
</g>
<defs>
<path id="path0_fill" d="M 7.82371 48L 0.439888 48L 0.439888 13.302L 7.82371 13.302L 7.82371 48ZM 0 4.1098C 0 2.79216 0.356099 1.77778 1.0683 1.06667C 1.80144 0.355556 2.83832 0 4.17893 0C 5.47765 0 6.4831 0.355556 7.1953 1.06667C 7.92845 1.77778 8.29502 2.79216 8.29502 4.1098C 8.29502 5.36471 7.92845 6.35817 7.1953 7.0902C 6.4831 7.80131 5.47765 8.15686 4.17893 8.15686C 2.83832 8.15686 1.80144 7.80131 1.0683 7.0902C 0.356099 6.35817 0 5.36471 0 4.1098Z"/>
<path id="path1_fill" d="M 47.6964 48L 40.2811 48L 40.2811 26.6039C 40.2811 23.9477 39.7784 21.9712 38.7729 20.6745C 37.7675 19.3569 36.1965 18.698 34.0599 18.698C 31.2111 18.698 29.1164 19.6288 27.7758 21.4902C 26.4561 23.3307 25.7963 26.4052 25.7963 30.7137L 25.7963 48L 18.4124 48L 18.4124 13.302L 24.1938 13.302L 25.2307 17.851L 25.6077 17.851C 26.5713 16.1987 27.9643 14.9229 29.7867 14.0235C 31.63 13.1242 33.6514 12.6745 35.8508 12.6745C 41.1923 12.6745 44.7324 14.4941 46.471 18.1333L 46.9737 18.1333C 48.0001 16.4183 49.4455 15.0797 51.3097 14.1176C 53.174 13.1556 55.3106 12.6745 57.7195 12.6745C 61.867 12.6745 64.8834 13.7203 66.7686 15.8118C 68.6748 17.9033 69.6279 21.0928 69.6279 25.3804L 69.6279 48L 62.2441 48L 62.2441 26.6039C 62.2441 23.9477 61.7309 21.9712 60.7045 20.6745C 59.699 19.3569 58.128 18.698 55.9914 18.698C 53.1217 18.698 51.0165 19.5974 49.6759 21.3961C 48.3562 23.1739 47.6964 25.9137 47.6964 29.6157L 47.6964 48Z"/>
<path id="path2_fill" d="M 109.218 48L 101.803 48L 101.803 26.6039C 101.803 23.9477 101.3 21.9712 100.294 20.6745C 99.2889 19.3569 97.7179 18.698 95.5813 18.698C 92.7325 18.698 90.6378 19.6288 89.2972 21.4902C 87.9775 23.3307 87.3177 26.4052 87.3177 30.7137L 87.3177 48L 79.9339 48L 79.9339 13.302L 85.7152 13.302L 86.7521 17.851L 87.1292 17.851C 88.0927 16.1987 89.4857 14.9229 91.3081 14.0235C 93.1514 13.1242 95.1728 12.6745 97.3723 12.6745C 102.714 12.6745 106.254 14.4941 107.992 18.1333L 108.495 18.1333C 109.522 16.4183 110.967 15.0797 112.831 14.1176C 114.695 13.1556 116.832 12.6745 119.241 12.6745C 123.388 12.6745 126.405 13.7203 128.29 15.8118C 130.196 17.9033 131.149 21.0928 131.149 25.3804L 131.149 48L 123.766 48L 123.766 26.6039C 123.766 23.9477 123.252 21.9712 122.226 20.6745C 121.22 19.3569 119.649 18.698 117.513 18.698C 114.643 18.698 112.538 19.5974 111.197 21.3961C 109.878 23.1739 109.218 25.9137 109.218 29.6157L 109.218 48Z"/>
<path id="path3_fill" d="M 148.839 48L 141.455 48L 141.455 13.302L 148.839 13.302L 148.839 48ZM 141.015 4.1098C 141.015 2.79216 141.371 1.77778 142.084 1.06667C 142.817 0.355556 143.854 0 145.194 0C 146.493 0 147.498 0.355556 148.211 1.06667C 148.944 1.77778 149.31 2.79216 149.31 4.1098C 149.31 5.36471 148.944 6.35817 148.211 7.0902C 147.498 7.80131 146.493 8.15686 145.194 8.15686C 143.854 8.15686 142.817 7.80131 142.084 7.0902C 141.371 6.35817 141.015 5.36471 141.015 4.1098Z"/>
<path id="path4_fill" d="M 190 48L 182.585 48L 182.585 26.6667C 182.585 23.9895 182.04 21.9922 180.951 20.6745C 179.883 19.3569 178.175 18.698 175.829 18.698C 172.708 18.698 170.425 19.6183 168.98 21.4588C 167.534 23.2993 166.812 26.3843 166.812 30.7137L 166.812 48L 159.428 48L 159.428 13.302L 165.209 13.302L 166.246 17.851L 166.623 17.851C 167.67 16.1987 169.158 14.9229 171.085 14.0235C 173.012 13.1242 175.149 12.6745 177.495 12.6745C 185.832 12.6745 190 16.9098 190 25.3804L 190 48Z"/>
</defs>
</svg>
