<svg width="152" height="152" viewBox="0 0 152 152" version="1.1" xmlns="http://www.w3.org/2000/svg" xmlns:xlink="http://www.w3.org/1999/xlink">
<title>visit-ill</title>
<desc>Created using Figma</desc>
<g id="Canvas" transform="translate(-3256 1726)">
<g id="visit-ill">
<g id="Mask Group">
<mask id="mask0_alpha" mask-type="alpha">
<g id="Rectangle 11">
<use xlink:href="#path0_fill" transform="translate(3257 -1725)" fill="#C4C4C4"/>
<use xlink:href="#path1_stroke" transform="translate(3257 -1725)" fill="#305689"/>
</g>
</mask>
<g id="Group" mask="url(#mask0_alpha)">
<g id="Rectangle 4">
<use xlink:href="#path2_fill" transform="translate(3267 -1675.58)" fill="#B1D2FF"/>
<use xlink:href="#path3_stroke" transform="translate(3267 -1675.58)" fill="#305689"/>
</g>
<g id="Rectangle 4">
<use xlink:href="#path4_stroke" transform="matrix(1 0 0 -1 3307 -1676)" fill="#305689"/>
</g>
<g id="Rectangle 4">
<use xlink:href="#path5_fill" transform="translate(3277.11 -1680.92)" fill="#FFFFFF"/>
<use xlink:href="#path6_stroke" transform="translate(3277.11 -1680.92)" fill="#305689"/>
</g>
<g id="Rectangle 4">
<use xlink:href="#path7_fill" transform="matrix(6.09977e-17 1 -1 6.14679e-17 3352 -1701)" fill="#B1D2FF"/>
<use xlink:href="#path8_stroke" transform="matrix(6.09977e-17 1 -1 6.14679e-17 3352 -1701)" fill="#305689"/>
</g>
<g id="Rectangle 4">
<use xlink:href="#path5_fill" transform="translate(3376.78 -1680.92)" fill="#FFFFFF"/>
<use xlink:href="#path6_stroke" transform="translate(3376.78 -1680.92)" fill="#305689"/>
</g>
<g id="Subtract" filter="url(#filter0_d)">
<use xlink:href="#path9_fill" transform="translate(3273.05 -1655.88)" fill="#FFFFFF"/>
</g>
<g id="Intersect">
<use xlink:href="#path10_fill" transform="translate(3273.05 -1655.88)" fill="#B1D2FF"/>
</g>
<g id="Subtract">
<use xlink:href="#path11_stroke" transform="translate(3273.05 -1655.88)" fill="#305689"/>
</g>
<g id="Vector">
<use xlink:href="#path12_stroke" transform="matrix(0.965677 -0.259747 0.257893 0.966173 3336.53 -1644.72)" fill="#305689"/>
</g>
<g id="Vector 3">
<use xlink:href="#path13_stroke" transform="matrix(0.965677 -0.259747 0.257893 0.966173 3284.61 -1606.51)" fill="#B1D2FF"/>
</g>
<g id="Vector 3">
<use xlink:href="#path13_stroke" transform="matrix(0.965677 -0.259747 0.257893 0.966173 3285.48 -1603.28)" fill="#B1D2FF"/>
</g>
<g id="Vector">
<use xlink:href="#path14_fill" transform="matrix(0.965677 -0.259747 0.257893 0.966173 3281.16 -1619.44)" fill="#B1D2FF"/>
</g>
</g>
</g>
<g id="Rectangle 11">
<use xlink:href="#path1_stroke" transform="translate(3257 -1725)" fill="#305689"/>
</g>
</g>
</g>
<defs>
<filter id="filter0_d" filterUnits="userSpaceOnUse" x="3273" y="-1656" width="95" height="62" color-interpolation-filters="sRGB">
<feFlood flood-opacity="0" result="BackgroundImageFix"/>
<feColorMatrix in="SourceAlpha" type="matrix" values="0 0 0 0 0 0 0 0 0 0 0 0 0 0 0 0 0 0 255 0"/>
<feOffset dx="4" dy="4"/>
<feColorMatrix type="matrix" values="0 0 0 0 0 0 0 0 0 0 0 0 0 0 0 0 0 0 0.1 0"/>
<feBlend mode="normal" in2="BackgroundImageFix" result="effect1_dropShadow"/>
<feBlend mode="normal" in="SourceGraphic" in2="effect1_dropShadow" result="shape"/>
</filter>
<path id="path0_fill" d="M 0 75C 0 33.5786 33.5786 0 75 0C 116.421 0 150 33.5786 150 75C 150 116.421 116.421 150 75 150C 33.5786 150 0 116.421 0 75Z"/>
<path id="path1_stroke" d="M 75 -1C 33.0264 -1 -1 33.0264 -1 75L 1 75C 1 34.1309 34.1309 1 75 1L 75 -1ZM 75 1C 115.869 1 149 34.1309 149 75L 151 75C 151 33.0264 116.974 -1 75 -1L 75 1ZM 149 75C 149 115.869 115.869 149 75 149L 75 151C 116.974 151 151 116.974 151 75L 149 75ZM 75 149C 34.1309 149 1 115.869 1 75L -1 75C -1 116.974 33.0264 151 75 151L 75 149Z"/>
<path id="path2_fill" d="M 0 5C 0 2.23858 2.23858 0 5 0L 125 0C 127.761 0 130 2.23858 130 5L 130 85C 130 87.7614 127.761 90 125 90L 5 90C 2.23858 90 0 87.7614 0 85L 0 5Z"/>
<path id="path3_stroke" d="M 5 1L 125 1L 125 -1L 5 -1L 5 1ZM 129 5L 129 85L 131 85L 131 5L 129 5ZM 125 89L 5 89L 5 91L 125 91L 125 89ZM 1 85L 1 5L -1 5L -1 85L 1 85ZM 5 -1C 1.68629 -1 -1 1.68629 -1 5L 1 5C 1 2.79086 2.79086 1 5 1L 5 -1ZM 125 1C 127.209 1 129 2.79086 129 5L 131 5C 131 1.68629 128.314 -1 125 -1L 125 1ZM 129 85C 129 87.2091 127.209 89 125 89L 125 91C 128.314 91 131 88.3137 131 85L 129 85ZM 5 89C 2.79086 89 1 87.2091 1 85L -1 85C -1 88.3137 1.68629 91 5 91L 5 89Z"/>
<path id="path4_stroke" d="M 1 0C 1 -0.552285 0.552285 -1 0 -1C -0.552285 -1 -1 -0.552285 -1 0L 1 0ZM 51 0C 51 -0.552285 50.5523 -1 50 -1C 49.4477 -1 49 -0.552285 49 0L 51 0ZM 49 0L 49 15L 51 15L 51 0L 49 0ZM 45 19L 5 19L 5 21L 45 21L 45 19ZM 1 15L 1 0L -1 0L -1 15L 1 15ZM 49 15C 49 17.2091 47.2091 19 45 19L 45 21C 48.3137 21 51 18.3137 51 15L 49 15ZM 5 19C 2.79086 19 1 17.2091 1 15L -1 15C -1 18.3137 1.68629 21 5 21L 5 19Z"/>
<path id="path5_fill" d="M 0 5C 0 2.23858 2.23858 0 5 0C 7.76142 0 10 2.23858 10 5L 10 95C 10 97.7614 7.76142 100 5 100C 2.23858 100 0 97.7614 0 95L 0 5Z"/>
<path id="path6_stroke" d="M 9 5L 9 95L 11 95L 11 5L 9 5ZM 1 95L 1 5L -1 5L -1 95L 1 95ZM 5 -1C 1.68629 -1 -1 1.68629 -1 5L 1 5C 1 2.79086 2.79086 1 5 1L 5 -1ZM 5 1C 7.20914 1 9 2.79086 9 5L 11 5C 11 1.68629 8.31371 -1 5 -1L 5 1ZM 9 95C 9 97.2091 7.20914 99 5 99L 5 101C 8.31371 101 11 98.3137 11 95L 9 95ZM 5 99C 2.79086 99 1 97.2091 1 95L -1 95C -1 98.3137 1.68629 101 5 101L 5 99Z"/>
<path id="path7_fill" d="M 0 5C 0 2.23858 2.23858 0 5 0C 7.76142 0 10 2.23858 10 5L 10 35C 10 37.7614 7.76142 40 5 40C 2.23858 40 0 37.7614 0 35L 0 5Z"/>
<path id="path8_stroke" d="M 9 5L 9 35L 11 35L 11 5L 9 5ZM 1 35L 1 5L -1 5L -1 35L 1 35ZM 5 -1C 1.68629 -1 -1 1.68629 -1 5L 1 5C 1 2.79086 2.79086 1 5 1L 5 -1ZM 5 1C 7.20914 1 9 2.79086 9 5L 11 5C 11 1.68629 8.31371 -1 5 -1L 5 1ZM 9 35C 9 37.2091 7.20914 39 5 39L 5 41C 8.31371 41 11 38.3137 11 35L 9 35ZM 5 39C 2.79086 39 1 37.2091 1 35L -1 35C -1 38.3137 1.68629 41 5 41L 5 39Z"/>
<path id="path9_fill" d="M 68.1892 2.96339C 69.1421 6.53351 67.0316 10.2032 63.4751 11.1598C 59.9187 12.1164 56.2631 9.99771 55.3102 6.42759L 1.64762 20.8617C 0.462141 21.1806 -0.241376 22.4038 0.0762718 23.5938L 8.70357 55.9152C 9.02122 57.1053 10.2397 57.8115 11.4252 57.4926L 65.0878 43.0585C 64.1348 39.4883 66.2454 35.8187 69.8018 34.8621C 73.3583 33.9055 77.0138 36.0242 77.9668 39.5943L 88.6993 36.7074C 89.8848 36.3886 90.5883 35.1654 90.2706 33.9753L 81.6433 1.65396C 81.3257 0.463918 80.1072 -0.242305 78.9217 0.0765651L 68.1892 2.96339Z"/>
<path id="path10_fill" d="M 63.4751 11.1598C 67.0316 10.2032 69.1421 6.53351 68.1892 2.96339L 78.9217 0.076564C 79.3127 -0.0285998 79.7072 -0.0222624 80.0719 0.0761519L 83.4459 12.7164L 2.95204 34.3676L 0.0762718 23.5938C -0.241376 22.4038 0.462141 21.1806 1.64762 20.8617L 55.3102 6.42758C 56.2631 9.9977 59.9187 12.1164 63.4751 11.1598Z"/>
<path id="path11_stroke" d="M 63.4751 11.1598L 63.2154 10.1941L 63.4751 11.1598ZM 68.1892 2.96339L 67.9294 1.99772C 67.3968 2.14098 67.0808 2.68841 67.223 3.22129L 68.1892 2.96339ZM 55.3102 6.42759L 56.2763 6.16969C 56.2079 5.91313 56.0401 5.69433 55.8102 5.56156C 55.5802 5.42879 55.3069 5.39293 55.0504 5.46191L 55.3102 6.42759ZM 1.64762 20.8617L 1.90737 21.8274L 1.90737 21.8274L 1.64762 20.8617ZM 0.0762743 23.5938L 1.04245 23.336L 1.04245 23.336L 0.0762743 23.5938ZM 8.70358 55.9152L 7.7374 56.1731L 7.7374 56.1731L 8.70358 55.9152ZM 11.4252 57.4926L 11.685 58.4583L 11.685 58.4583L 11.4252 57.4926ZM 65.0878 43.0585L 65.3475 44.0241C 65.8801 43.8809 66.1962 43.3335 66.054 42.8006L 65.0878 43.0585ZM 69.8018 34.8621L 69.5421 33.8964L 69.8018 34.8621ZM 77.9668 39.5943L 77.0006 39.8522C 77.0691 40.1087 77.2368 40.3275 77.4668 40.4603C 77.6968 40.5931 77.9701 40.6289 78.2265 40.56L 77.9668 39.5943ZM 88.6993 36.7074L 88.4395 35.7418L 88.6993 36.7074ZM 90.2706 33.9753L 89.3045 34.2332L 89.3045 34.2332L 90.2706 33.9753ZM 81.6433 1.65396L 80.6772 1.91184L 80.6772 1.91185L 81.6433 1.65396ZM 78.9217 0.0765642L 78.6619 -0.889113L 78.6619 -0.889112L 78.9217 0.0765642ZM 63.7349 12.1254C 67.8269 11.0248 70.2497 6.80548 69.1554 2.7055L 67.223 3.22129C 68.0345 6.26155 66.2362 9.38155 63.2154 10.1941L 63.7349 12.1254ZM 54.344 6.68548C 55.4388 10.7869 59.6414 13.2265 63.7349 12.1254L 63.2154 10.1941C 60.196 11.0062 57.0875 9.20853 56.2763 6.16969L 54.344 6.68548ZM 1.90737 21.8274L 55.5699 7.39326L 55.0504 5.46191L 1.38788 19.896L 1.90737 21.8274ZM 1.04245 23.336C 0.866227 22.6758 1.2575 22.0022 1.90737 21.8274L 1.38788 19.896C -0.33323 20.359 -1.34899 22.1318 -0.889898 23.8517L 1.04245 23.336ZM 9.66975 55.6573L 1.04245 23.336L -0.889899 23.8517L 7.7374 56.1731L 9.66975 55.6573ZM 11.1655 56.5269C 10.5171 56.7013 9.84559 56.3161 9.66975 55.6573L 7.7374 56.1731C 8.19687 57.8944 9.96241 58.9216 11.685 58.4583L 11.1655 56.5269ZM 64.828 42.0928L 11.1655 56.5269L 11.685 58.4583L 65.3475 44.0241L 64.828 42.0928ZM 66.054 42.8006C 65.2424 39.7603 67.0408 36.6403 70.0616 35.8278L 69.5421 33.8964C 65.45 34.9971 63.0272 39.2164 64.1216 43.3164L 66.054 42.8006ZM 70.0616 35.8278C 73.0809 35.0156 76.1895 36.8133 77.0006 39.8522L 78.933 39.3364C 77.8382 35.235 73.6356 32.7953 69.5421 33.8964L 70.0616 35.8278ZM 88.4395 35.7418L 77.7071 38.6286L 78.2265 40.56L 88.959 37.6731L 88.4395 35.7418ZM 89.3045 34.2332C 89.4807 34.8934 89.0894 35.567 88.4395 35.7418L 88.959 37.6731C 90.6801 37.2102 91.6959 35.4373 91.2368 33.7174L 89.3045 34.2332ZM 80.6772 1.91185L 89.3045 34.2332L 91.2368 33.7174L 82.6095 1.39606L 80.6772 1.91185ZM 79.1814 1.04224C 79.8298 0.867837 80.5013 1.2531 80.6772 1.91184L 82.6095 1.39607C 82.1501 -0.325267 80.3845 -1.35244 78.6619 -0.889113L 79.1814 1.04224ZM 68.4489 3.92907L 79.1814 1.04224L 78.6619 -0.889112L 67.9294 1.99772L 68.4489 3.92907Z"/>
<path id="path12_stroke" d="M 1 0C 1 -0.552285 0.552285 -1 0 -1C -0.552285 -1 -1 -0.552285 -1 0L 1 0ZM -1 24.5322C -1 25.0845 -0.552285 25.5322 0 25.5322C 0.552285 25.5322 1 25.0845 1 24.5322L -1 24.5322ZM -1 1.7523C -1 2.30458 -0.552285 2.7523 0 2.7523C 0.552285 2.7523 1 2.30458 1 1.7523L -1 1.7523ZM 1 4.38075C 1 3.82846 0.552285 3.38075 0 3.38075C -0.552285 3.38075 -1 3.82846 -1 4.38075L 1 4.38075ZM -1 7.88534C -1 8.43763 -0.552285 8.88534 0 8.88534C 0.552285 8.88534 1 8.43763 1 7.88534L -1 7.88534ZM 1 10.5138C 1 9.9615 0.552285 9.51379 0 9.51379C -0.552285 9.51379 -1 9.9615 -1 10.5138L 1 10.5138ZM -1 14.0184C -1 14.5707 -0.552285 15.0184 0 15.0184C 0.552285 15.0184 1 14.5707 1 14.0184L -1 14.0184ZM 1 16.6468C 1 16.0945 0.552285 15.6468 0 15.6468C -0.552285 15.6468 -1 16.0945 -1 16.6468L 1 16.6468ZM -1 20.1514C -1 20.7037 -0.552285 21.1514 0 21.1514C 0.552285 21.1514 1 20.7037 1 20.1514L -1 20.1514ZM 1 22.7799C 1 22.2276 0.552285 21.7799 0 21.7799C -0.552285 21.7799 -1 22.2276 -1 22.7799L 1 22.7799ZM -1 0L -1 1.7523L 1 1.7523L 1 0L -1 0ZM -1 4.38075L -1 7.88534L 1 7.88534L 1 4.38075L -1 4.38075ZM -1 10.5138L -1 14.0184L 1 14.0184L 1 10.5138L -1 10.5138ZM -1 16.6468L -1 20.1514L 1 20.1514L 1 16.6468L -1 16.6468ZM -1 22.7799L -1 24.5322L 1 24.5322L 1 22.7799L -1 22.7799Z"/>
<path id="path13_stroke" d="M 0 -1C -0.552285 -1 -1 -0.552285 -1 0C -1 0.552285 -0.552285 1 0 1L 0 -1ZM 15.5596 1C 16.1119 1 16.5596 0.552285 16.5596 0C 16.5596 -0.552285 16.1119 -1 15.5596 -1L 15.5596 1ZM 0 1L 15.5596 1L 15.5596 -1L 0 -1L 0 1Z"/>
<path id="path14_fill" d="M 0.71914 4.4604L 0 2.2302L 0.71914 2.2302L 2.15742 3.717L 6.47226 3.717L 3.5957 0L 5.03398 0L 9.34882 3.717L 12.5934 3.717C 13.0039 3.717 13.3368 4.04983 13.3368 4.4604C 13.3368 4.87096 13.0039 5.20379 12.5934 5.20379L 9.34882 5.20379L 5.03398 8.92079L 3.5957 8.92079L 6.47226 5.20379L 2.15742 5.20379L 0.71914 6.69059L 0 6.69059L 0.71914 4.4604Z"/>
</defs>
</svg>
